#Unknown ASF file
:ROOT_YZX
:FOOT_3DOF
:FULLY-SPECIFIED
:DEGREES
562
root 7.41008 17.9014 -27.4571 0.63878 -12.8257 2.20465
lfemur 10.3053 -14.7012 -25.9194
ltibia 21.6235
lfoot -7.53872 0 -21.3743
ltoes -7.29904
rfemur -27.6842 7.22149 13.3822
rtibia 28.2108
rfoot -5.59958 0 6.47121
rtoes -19.7253
lowerback 11.182 1.78676 -4.64636
upperback 2.54928 1.92174 2.33159
thorax -3.83096 0.998981 4.79197
lowerneck -18.0225 -3.70515 -14.2577
upperneck 19.6381 -2.89258 7.7388
head 9.51542 -1.56721 4.68001
lclavicle -1.98785e-016 -1.35174e-014
lhumerus -41.4919 19.3105 80.9155
lradius 24.2603
lwrist -4.36757
lhand -11.0007 29.9021
lfingers 7.12502
lthumb 15.0198 59.3373
rclavicle -1.98785e-016 -1.35174e-014
rhumerus -36.5621 -16.1415 -73.1353
rradius 22.6237
rwrist 9.00834
rhand -21.0089 13.6812
rfingers 7.12502
rthumb 5.36574 -16.2309
563
root 7.22964 17.983 -27.0334 0.951633 -12.0063 1.84183
lfemur 10.1456 -13.8134 -25.2429
ltibia 23.7128
lfoot -5.57562 0 -21.5996
ltoes -18.3412
rfemur -26.2234 5.32125 14.4049
rtibia 27.8649
rfoot -4.98069 0 7.83023
rtoes -37.0776
lowerback 10.6549 1.47461 -4.32146
upperback 2.48516 1.57526 2.55418
thorax -3.56409 0.820383 4.89985
lowerneck -18.1072 -3.58526 -14.2154
upperneck 19.2502 -2.72638 7.80003
head 9.37393 -1.46828 4.70796
lclavicle -1.59028e-015 2.94201e-014
lhumerus -41.0084 16.0772 83.5828
lradius 26.8431
lwrist -3.10832
lhand -9.02775 32.7603
lfingers 7.12502
lthumb 16.9197 62.0433
rclavicle -1.59028e-015 2.94201e-014
rhumerus -37.4775 -15.1186 -73.0566
rradius 22.6814
rwrist 8.71465
rhand -20.6295 13.0913
rfingers 7.12502
rthumb 5.7321 -16.8112
564
root 7.02845 18.0349 -26.5733 1.05288 -10.0694 1.47494
lfemur 9.77507 -14.1534 -24.3528
ltibia 26.4896
lfoot -1.01195 0 -21.6484
ltoes -15.1403
rfemur -24.5194 2.87921 15.3408
rtibia 28.2681
rfoot -7.08341 0 6.83374
rtoes -26.1172
lowerback 10.901 0.848185 -4.04075
upperback 1.94914 0.782886 2.85488
thorax -4.16888 0.454365 5.17048
lowerneck -18.1392 -3.5572 -14.3302
upperneck 19.2388 -2.69371 7.99153
head 9.37534 -1.43999 4.80042
lclavicle -1.37161e-014 -2.3059e-014
lhumerus -41.4551 12.453 85.7851
lradius 29.7145
lwrist -1.62307
lhand -10.1536 30.7676
lfingers 7.12502
lthumb 15.8357 60.14
rclavicle -1.37161e-014 -2.3059e-014
rhumerus -38.7903 -14.3903 -72.6657
rradius 22.8542
rwrist 8.51052
rhand -20.4821 12.8411
rfingers 7.12502
rthumb 5.87439 -17.0575
565
root 6.85333 18.0488 -26.1484 0.972672 -10.1312 0.373089
lfemur 8.18442 -12.4756 -22.6944
ltibia 30.7787
lfoot 5.55586 0 -21.5646
ltoes -8.95783
rfemur -23.5017 1.72742 17.0875
rtibia 29.5083
rfoot -8.81449 0 8.4618
rtoes -26.0766
lowerback 11.0664 0.855491 -3.02055
upperback 1.81979 0.929848 3.31512
thorax -4.4069 0.523767 5.05386
lowerneck -17.999 -3.45047 -14.1802
upperneck 18.8446 -2.49236 7.53194
head 9.18184 -1.37668 4.62658
lclavicle 5.96354e-015 3.10104e-014
lhumerus -41.1027 9.98105 87.319
lradius 31.9188
lwrist -0.603642
lhand -10.268 29.7933
lfingers 7.12502
lthumb 15.7256 59.1744
rclavicle 5.96354e-015 3.10104e-014
rhumerus -39.3642 -13.397 -72.6567
rradius 23.3502
rwrist 7.45333
rhand -20.4533 12.8587
rfingers 7.12502
rthumb 5.90217 -17.039
566
root 6.66279 17.9913 -25.742 0.575227 -9.23411 -0.275393
lfemur 6.3173 -10.5025 -20.8637
ltibia 35.8388
lfoot 14.446 0 -21.8653
ltoes -2.48498
rfemur -22.626 0.792487 18.3245
rtibia 31.8222
rfoot -11.1222 0 8.54877
rtoes -27.7694
lowerback 11.3174 0.648788 -2.57722
upperback 2.11564 0.713853 3.62742
thorax -4.21053 0.401963 5.16347
lowerneck -18.5158 -3.43963 -14.1377
upperneck 18.2711 -2.37758 7.4647
head 9.06134 -1.30306 4.5975
lclavicle 2.56432e-014 -9.54166e-015
lhumerus -39.6845 8.00253 88.2425
lradius 33.9945
lwrist 0.15485
lhand -10.2269 29.3449
lfingers 7.12502
lthumb 15.7651 58.7228
rclavicle 2.56432e-014 -9.54166e-015
rhumerus -38.7109 -13.5247 -72.5715
rradius 23.3416
rwrist 7.21629
rhand -20.3017 12.9031
rfingers 7.12502
rthumb 6.04853 -16.9906
